<svg xmlns="http://www.w3.org/2000/svg" viewBox="0 0 530.74 350.22"><defs><style>.cls-1{fill:#ed2024;}.cls-2{fill:#333;}</style></defs><g id="Layer_2" data-name="Layer 2"><g id="Layer_1-2" data-name="Layer 1"><path class="cls-1" d="M246.56,55,306.39,8.3a13.83,13.83,0,0,1,7.95-2.77h1.73a4.36,4.36,0,0,1,4.5,4.5V243.12a4.36,4.36,0,0,1-4.5,4.5H283.56a4.18,4.18,0,0,1-4.5-4.5V79.2c0-3.81-1.38-5.54-3.45-5.54a6.76,6.76,0,0,0-4.5,1.73l-6.57,5.19c-2.08,1.73-4.5,1.38-6.22-1l-12.46-18A4.84,4.84,0,0,1,246.56,55Z"/><path class="cls-1" d="M366.21,200.93l27.67-16.25c2.42-1.39,4.84-.7,6.57,1.73,5.88,8.64,19.72,23.86,40.46,23.86,54.3,0,56.38-73.32,1.73-80.24-2.76-.34-7.26-.34-14.87-.34a3.28,3.28,0,0,1-3.46-3.46l1-24.55a4.66,4.66,0,0,1,4.84-4.5c49.8-3.11,47-58.45,10.38-58.45-16.6,0-27,11.76-31.13,17.64-2.07,2.42-4.15,2.77-6.22,1.38L379,42.88a4.22,4.22,0,0,1-1.38-6.22C393.88,11.41,420.51,0,445.76,0c64.32,0,84,66.75,53.6,102.71-3.8,4.5-3.11,9,1.73,12.45,54.3,41.16,33.89,137.65-60.18,137.65-39.42,0-62.25-21.79-76.42-45.65A4.33,4.33,0,0,1,366.21,200.93Z"/><path class="cls-2" d="M193.34,165.76a14.47,14.47,0,1,1,0,28.94H168.59l-.38,38.45a14.47,14.47,0,1,1-28.94,0l.38-38.45H71.88v38.45a14.29,14.29,0,0,1-14.46,14.47A14.31,14.31,0,0,1,43,233.15V194.7H18.2a14,14,0,0,1-10.28-4.19,14.71,14.71,0,0,1,0-20.56,14,14,0,0,1,10.28-4.19H43v-53.3H18.2a13.67,13.67,0,0,1-10.28-4.38,14.71,14.71,0,0,1,0-20.56A13.7,13.7,0,0,1,18.2,83.14H43v-43A14.31,14.31,0,0,1,57.42,25.65,14.29,14.29,0,0,1,71.88,40.12v43h67.77l-.38-43a14.47,14.47,0,1,1,28.94,0l.38,43h24.75a13.74,13.74,0,0,1,10.28,4.38,14.73,14.73,0,0,1,0,20.56,13.7,13.7,0,0,1-10.28,4.38H168.59v53.3Zm-53.69,0v-53.3H71.88v53.3Z"/><path class="cls-2" d="M153.74,251.35a18,18,0,0,1-18.2-18.2l.34-34.72H75.62v34.72a18,18,0,0,1-18.2,18.2,18,18,0,0,1-18.2-18.2V198.43h-21a17.63,17.63,0,0,1-12.92-5.29,18.44,18.44,0,0,1,0-25.83A17.67,17.67,0,0,1,18.2,162h21V116.19h-21a17.32,17.32,0,0,1-13-5.53,18.45,18.45,0,0,1,0-25.72,17.36,17.36,0,0,1,13-5.53h21V40.12a18,18,0,0,1,18.2-18.2,18,18,0,0,1,18.2,18.2V79.41h60.27l-.35-39.26a18.2,18.2,0,1,1,36.4,0l.35,39.29h21.05a17.35,17.35,0,0,1,13,5.53,18.43,18.43,0,0,1,0,25.72,17.33,17.33,0,0,1-13,5.53h-21V162h21a18.2,18.2,0,1,1,0,36.4H172.29l-.35,34.76a18,18,0,0,1-18.2,18.16ZM68.15,191h75.27L143,233.19a10.74,10.74,0,1,0,21.48,0l.41-42.19h28.45a10.74,10.74,0,1,0,0-21.47H164.86V108.73h28.48a10,10,0,0,0,7.58-3.23,11,11,0,0,0,0-15.4,10,10,0,0,0-7.58-3.22H164.89l-.41-46.73a10.74,10.74,0,1,0-21.47,0l.41,46.76H68.15V40.12A10.59,10.59,0,0,0,57.42,29.38,10.59,10.59,0,0,0,46.68,40.12V86.88H18.2a10,10,0,0,0-7.58,3.22,11,11,0,0,0,0,15.4,10,10,0,0,0,7.59,3.23H46.68v60.76H18.2a10.74,10.74,0,1,0,0,21.47H46.68v42.19a10.57,10.57,0,0,0,10.74,10.74,10.57,10.57,0,0,0,10.73-10.74Zm75.24-21.47H68.15V108.73h75.24ZM75.62,162h60.3V116.19H75.62Z"/><path class="cls-2" d="M11.23,342.25H35v7.25H2.14V297.23h9.09Z"/><path class="cls-2" d="M72.47,326.17H51v16.08H76.1v7.25H41.92V297.23H75.84v7.32H51V319H72.47Z"/><path class="cls-2" d="M112.75,337.33H92.5L88.26,349.5H78.82l19.75-52.27h8.15L126.5,349.5H117ZM95.05,330H110.2l-7.58-21.68Z"/><path class="cls-2" d="M151.63,329.4H141.5v20.1h-9.08V297.23H150.8q9,0,14,4.06T169.68,313a14.71,14.71,0,0,1-2.53,8.79,16.2,16.2,0,0,1-7.05,5.44L171.84,349v.46h-9.73Zm-10.13-7.33h9.34a10.41,10.41,0,0,0,7.18-2.31,8.09,8.09,0,0,0,2.58-6.34,8.62,8.62,0,0,0-2.39-6.5q-2.39-2.3-7.12-2.37H141.5Z"/><path class="cls-2" d="M219.76,349.5h-9.08l-23.3-37.08V349.5H178.3V297.23h9.08l23.37,37.23V297.23h9Z"/><path class="cls-2" d="M284.41,304.55H268.12V349.5h-9V304.55H243v-7.32h41.46Z"/><path class="cls-2" d="M332,324.73a31.92,31.92,0,0,1-2.66,13.48,20,20,0,0,1-7.59,8.9,22.25,22.25,0,0,1-22.69,0,20.44,20.44,0,0,1-7.68-8.85A31.06,31.06,0,0,1,288.61,325v-2.95a31.88,31.88,0,0,1,2.71-13.49,20.36,20.36,0,0,1,7.65-9,22.3,22.3,0,0,1,22.65,0,20.11,20.11,0,0,1,7.63,8.83A31.59,31.59,0,0,1,332,321.82ZM322.9,322q0-8.69-3.29-13.32a11.58,11.58,0,0,0-18.52,0c-2.21,3.07-3.35,7.42-3.39,13v3c0,5.74,1.11,10.19,3.35,13.32a10.81,10.81,0,0,0,9.32,4.7,10.69,10.69,0,0,0,9.28-4.59q3.24-4.61,3.25-13.43Z"/><path class="cls-2" d="M368.42,342.25h23.73v7.25H359.33V297.23h9.09Z"/><path class="cls-2" d="M429.66,326.17H408.19v16.08h25.09v7.25H399.11V297.23H433v7.32H408.19V319h21.47Z"/><path class="cls-2" d="M469.94,337.33H449.69l-4.24,12.17H436l19.75-52.27h8.15l19.78,52.27h-9.48ZM452.24,330h15.15l-7.58-21.68Z"/><path class="cls-2" d="M489.61,349.5V297.23H505a24.22,24.22,0,0,1,12.3,3.09,21,21,0,0,1,8.31,8.76,27.81,27.81,0,0,1,2.94,13v2.63a27.61,27.61,0,0,1-3,13.06,20.72,20.72,0,0,1-8.43,8.69,25.41,25.41,0,0,1-12.55,3.05Zm9.08-44.95v37.7h5.92q7.15,0,11-4.47t3.9-12.83V322q0-8.51-3.7-13T505,304.55Z"/></g></g></svg>